<?xml version="1.0" encoding="UTF-8" standalone="no"?>
<!-- Created with Inkscape (http://www.inkscape.org/) -->

<svg
   width="256"
   height="256"
   viewBox="0 0 67.733328 67.733333"
   version="1.1"
   id="svg5"
   inkscape:version="1.1.1 (3bf5ae0d25, 2021-09-20)"
   sodipodi:docname="LottoBall_LH.svg"
   xmlns:inkscape="http://www.inkscape.org/namespaces/inkscape"
   xmlns:sodipodi="http://sodipodi.sourceforge.net/DTD/sodipodi-0.dtd"
   xmlns="http://www.w3.org/2000/svg"
   xmlns:svg="http://www.w3.org/2000/svg">
  <sodipodi:namedview
     id="namedview7"
     pagecolor="#ffffff"
     bordercolor="#666666"
     borderopacity="1.0"
     inkscape:pageshadow="2"
     inkscape:pageopacity="0.0"
     inkscape:pagecheckerboard="0"
     inkscape:document-units="px"
     showgrid="false"
     units="px"
     inkscape:zoom="1.4823793"
     inkscape:cx="45.534905"
     inkscape:cy="171.00886"
     inkscape:window-width="1680"
     inkscape:window-height="987"
     inkscape:window-x="-8"
     inkscape:window-y="24"
     inkscape:window-maximized="1"
     inkscape:current-layer="layer1" />
  <defs
     id="defs2" />
  <g
     inkscape:label="Layer 1"
     inkscape:groupmode="layer"
     id="layer1">
    <circle
       style="fill:#ffff00;fill-opacity:1;stroke:#000000;stroke-width:0.772339;stroke-linecap:round"
       id="path846"
       cx="33.912254"
       cy="34.001499"
       r="32.645123" />
    <circle
       style="fill:#ffffff;fill-opacity:1;stroke:#000000;stroke-width:0.570303;stroke-linecap:round"
       id="path846-4"
       cx="33.810875"
       cy="33.989357"
       r="24.105446" />
    <circle
       style="fill:#ffffff;fill-opacity:1;stroke:#000000;stroke-width:2.73865;stroke-linecap:round;stroke-miterlimit:4;stroke-dasharray:none"
       id="path846-4-3"
       cx="33.824532"
       cy="34.161728"
       r="19.131945" />
    <path
       style="fill:#ffff00;stroke:#000000;stroke-width:5.49956;stroke-linecap:round"
       d="M 118.39075,205.67099 C 107.76934,204.45576 93.912835,199.21575 84.603588,192.89396 79.011854,189.09668 69.959732,180.36754 65.817247,174.77792 51.159272,154.99931 46.903867,128.22251 54.707154,104.86852 66.576945,69.344156 102.43595,47.325915 139.30308,52.924714 c 28.50283,4.328561 52.50672,24.550054 61.65982,51.943806 5.19268,15.54084 5.07447,33.92396 -0.31739,49.35731 -4.16536,11.92269 -10.25742,21.32025 -19.69395,30.3797 -6.78731,6.51608 -12.16119,10.2466 -20.31615,14.10335 -13.55424,6.41026 -27.28701,8.67348 -42.24466,6.96211 z m 27.75172,-11.62591 c 11.89758,-3.54654 21.10931,-8.99828 29.41916,-17.41102 5.9117,-5.9849 8.90546,-10.06647 12.29018,-16.75595 7.30844,-14.44422 9.25791,-31.41097 5.42569,-47.22138 -1.87438,-7.73305 -7.65542,-19.28708 -13.01645,-26.014777 -8.1534,-10.231905 -21.67233,-19.130532 -34.21206,-22.519562 -11.40949,-3.083566 -24.98193,-3.085816 -36.42792,-0.006 -12.362627,3.32638 -26.143058,12.399569 -34.212061,22.525562 -5.361035,6.727697 -11.142075,18.281727 -13.016455,26.014777 -3.788043,15.62816 -1.891588,32.64489 5.225067,46.88408 6.674052,13.35362 19.635214,25.63956 33.053259,31.3313 10.51928,4.46213 15.96196,5.41968 29.18792,5.13508 8.85033,-0.19044 11.35115,-0.49178 16.28367,-1.96211 z"
       id="path905"
       transform="scale(0.26458332)" />
    <path
       style="fill:#ffff00;stroke:#000000;stroke-width:5.49956;stroke-linecap:round"
       d="M 118.39075,202.64684 C 106.47582,200.46205 94.37034,195.73329 86.010375,189.99811 81.846805,187.14177 72.302113,177.89606 68.721936,173.25122 62.47513,165.14674 57.302113,153.37447 55.305538,142.71944 54.009901,135.80507 53.840809,122.87491 54.965719,116.73408 60.507688,86.480654 83.59852,62.847817 113.67386,56.647888 c 8.97043,-1.849221 22.78828,-1.585622 31.45446,0.600047 26.44275,6.669038 46.78163,26.780611 54.32951,53.722315 1.74335,6.22278 2.4284,22.52743 1.25439,29.85527 -2.40677,15.02241 -8.79727,27.63579 -19.81695,39.11415 -7.03021,7.32283 -12.82601,11.55015 -21.54781,15.71647 -10.34078,4.93968 -18.16556,6.79559 -29.82595,7.07425 -5.19436,0.12413 -10.2032,0.0865 -11.13076,-0.0836 z m 29.45184,-5.91463 c 12.47571,-4.06919 21.46475,-9.47934 29.90327,-17.99762 13.72223,-13.85194 20.25952,-30.04541 20.23779,-50.13084 -0.0151,-13.92853 -3.39504,-25.44425 -11.1553,-38.00673 -7.50141,-12.143451 -22.75,-23.931985 -36.73181,-28.397009 -7.86103,-2.510381 -12.30352,-3.136248 -22.26151,-3.136248 -16.20593,0 -25.45734,2.743646 -39.12629,11.6035 -14.659504,9.501905 -26.155673,26.378633 -29.751383,43.675937 -2.403667,11.56294 -1.469407,26.65645 2.34293,37.85138 6.391416,18.76842 21.683541,34.93096 39.977493,42.25297 9.97685,3.99317 13.66754,4.55537 28.24373,4.30234 11.70797,-0.20324 13.29356,-0.37786 18.32108,-2.01768 z"
       id="path944"
       transform="scale(0.26458332)" />
    <path
       style="fill:#e5013b;stroke:#e5013b;stroke-width:3.00000003;stroke-linecap:round;fill-opacity:1;stroke-miterlimit:4;stroke-dasharray:none;stroke-opacity:1"
       d="M 112.99402,207.16412 C 87.737819,201.55171 67.927582,186.37681 56.988239,164.26295 46.581418,143.22559 45.752655,120.39827 54.607193,98.679779 61.215395,82.471125 75.358441,67.054309 91.094425,58.906387 c 11.906535,-6.165074 23.425715,-8.988124 36.660325,-8.984484 21.04228,0.0058 39.66739,7.560132 55.05041,22.328443 17.41092,16.715181 26.3674,40.658304 23.98188,64.110114 -3.00952,29.58626 -22.14325,55.26327 -49.35536,66.23369 -10.37049,4.18081 -15.91326,5.28923 -27.91017,5.58136 -8.81234,0.21458 -11.84593,0.0289 -16.52749,-1.01139 z m 31.82944,-15.19267 c 10.13794,-2.85773 19.45542,-8.13882 27.28694,-15.46605 13.1727,-12.32448 19.60341,-26.55997 20.31018,-44.96012 0.52467,-13.65909 -1.80012,-23.16971 -8.59454,-35.159939 -8.49794,-14.996435 -23.39864,-26.23289 -40.33425,-30.415623 -8.33517,-2.058608 -22.97836,-2.058608 -31.31352,0 -16.852767,4.16227 -32.235962,15.794559 -40.551147,30.663499 -6.633885,11.862493 -8.913307,21.490163 -8.345543,35.249363 0.433339,10.50155 2.002404,17.01333 6.176822,25.63446 8.502145,17.55887 25.75232,31.28421 44.134298,35.11606 6.07495,1.26636 25.87952,0.84679 31.23076,-0.66165 z"
       id="path983"
       transform="scale(0.26458332)" />
    <path
       style="fill:#e5013b;fill-opacity:1;stroke:#e5013b;stroke-width:7.70000007;stroke-linecap:round;stroke-miterlimit:4;stroke-dasharray:none;stroke-opacity:1"
       d="M 116.02968,249.47975 C 96.146823,247.47605 74.316958,239.24952 57.677546,227.48989 49.456085,221.67951 35.032677,207.26304 29.178335,199.0044 26.679737,195.47966 22.543775,188.48669 19.987309,183.46447 2.1710457,148.46414 2.1710457,108.5551 19.987309,73.554764 26.309592,61.134539 32.109193,53.218272 42.495085,42.83238 52.880977,32.446489 60.797243,26.646888 73.217469,20.324605 c 35.000331,-17.8162637 74.909381,-17.8162637 109.909711,0 12.42023,6.322283 20.33649,12.121884 30.72239,22.507775 10.38589,10.385892 16.18548,18.302159 22.50777,30.722384 17.91167,35.187766 17.79177,75.450276 -0.32938,110.608626 -6.12391,11.88152 -12.02528,19.87036 -22.17839,30.02347 -10.15311,10.15311 -18.14195,16.05448 -30.02347,22.17839 -21.20623,10.93001 -44.58924,15.45321 -67.79642,13.1145 z m 21.99715,-29.22289 c 10.90911,-0.80569 25.70812,-5.59008 36.1443,-11.68513 30.11287,-17.58687 47.55668,-49.82631 45.8486,-84.73685 -1.14786,-23.46074 -10.10787,-43.716445 -26.74936,-60.471755 -17.91609,-18.038624 -39.809,-27.12736 -65.43534,-27.165161 -25.4873,-0.03759 -47.101556,8.874378 -65.138607,26.857898 -13.423529,13.38369 -21.500966,28.188113 -25.590454,46.902498 -1.689894,7.73333 -2.089263,23.88406 -0.792658,32.05566 6.049122,38.12336 33.597124,67.98908 70.598849,76.5386 6.73881,1.55705 17.83349,2.66999 22.94664,2.30185 1.66962,-0.12021 5.34523,-0.38913 8.16803,-0.59761 z"
       id="path1133"
       transform="scale(0.26458332)" />
  </g>
</svg>
